<svg width="86" height="86" viewBox="0 0 86 86" fill="none" xmlns="http://www.w3.org/2000/svg">
<path d="M43 0L86 43L43 86L2.90482e-06 43L43 0Z" fill="url(#paint0_linear_9414_1478)"/>
<path d="M14.1033 38.3061L18.0438 48.6245L21.9844 38.3061H20.7876L18.0438 45.7348L15.3 38.3061H14.1033Z" fill="white"/>
<path d="M23.3514 38.3061V48.0407H24.4314V38.3061H23.3514Z" fill="white"/>
<path d="M26.9431 38.3061V48.0407H28.0231V43.8083H28.9717C31.1901 43.8083 32.0512 42.451 32.0512 41.0791C32.0512 40.4661 31.8761 39.605 31.1609 38.992C30.5042 38.4228 29.6869 38.3061 28.709 38.3061H26.9431ZM28.0231 39.3277H28.8258C29.5263 39.3277 30.9712 39.4737 30.9712 41.0207C30.9712 42.1445 30.1977 42.7867 28.9133 42.7867H28.0231V39.3277Z" fill="white"/>
<path d="M44.4487 39.1088C43.2811 38.2185 42.1573 38.1455 41.5735 38.1455C38.6546 38.1455 36.48 40.3056 36.48 43.2099C36.48 46.0267 38.6254 48.2159 41.5152 48.2159C42.2449 48.2159 43.3687 48.0407 44.4487 47.2672V45.9245C44.2736 46.0996 43.8795 46.4645 43.3249 46.7418C42.8141 47.0045 42.1719 47.1942 41.5152 47.1942C39.7346 47.1942 37.5892 45.8661 37.5892 43.2245C37.5892 40.9769 39.253 39.1672 41.5006 39.1672C42.0698 39.1672 42.6681 39.3131 43.179 39.5466C43.6752 39.7801 44.1422 40.145 44.4487 40.4515V39.1088Z" fill="white"/>
<path d="M50.9796 48.2159C53.7964 48.2159 56.0439 46.0705 56.0439 43.1807C56.0439 40.2764 53.7818 38.1455 50.9796 38.1455C48.1774 38.1455 45.9152 40.2764 45.9152 43.1807C45.9152 46.0705 48.1628 48.2159 50.9796 48.2159ZM50.9796 39.1672C53.1688 39.1672 54.9347 40.9477 54.9347 43.1807C54.9347 45.4137 53.1688 47.1942 50.9796 47.1942C48.7904 47.1942 47.0244 45.4137 47.0244 43.1807C47.0244 40.9477 48.7904 39.1672 50.9796 39.1672Z" fill="white"/>
<path d="M58.028 38.3061V48.0407H59.108V38.3061H58.028Z" fill="white"/>
<path d="M62.6997 48.0407V40.5245L70.2889 48.4786V38.3061H69.2089V45.8515L61.6197 37.8974V48.0407H62.6997Z" fill="white"/>
<defs>
<linearGradient id="paint0_linear_9414_1478" x1="78.5" y1="-1.64516e-06" x2="21.5" y2="64.5" gradientUnits="userSpaceOnUse">
<stop stop-color="#FF3333"/>
<stop offset="0.990537" stop-color="#FF3333" stop-opacity="0"/>
</linearGradient>
</defs>
</svg>
