<svg width="57" height="12" viewBox="0 0 57 12" fill="none" xmlns="http://www.w3.org/2000/svg">
<path d="M0.103271 1.30608L4.04384 11.6245L7.9844 1.30608H6.78764L4.04384 8.73478L1.30004 1.30608H0.103271Z" fill="white"/>
<path d="M9.3514 1.30608V11.0407H10.4314V1.30608H9.3514Z" fill="white"/>
<path d="M12.9431 1.30608V11.0407H14.0231V6.80828H14.9717C17.1901 6.80828 18.0512 5.45097 18.0512 4.07907C18.0512 3.46609 17.8761 2.60501 17.1609 1.99203C16.5042 1.42284 15.6869 1.30608 14.709 1.30608H12.9431ZM14.0231 2.32771H14.8258C15.5263 2.32771 16.9712 2.47366 16.9712 4.02069C16.9712 5.14448 16.1977 5.78665 14.9133 5.78665H14.0231V2.32771Z" fill="white"/>
<path d="M30.4487 2.10879C29.2811 1.21851 28.1573 1.14554 27.5735 1.14554C24.6546 1.14554 22.48 3.30555 22.48 6.2099C22.48 9.02667 24.6254 11.2159 27.5152 11.2159C28.2449 11.2159 29.3687 11.0407 30.4487 10.2672V8.92451C30.2736 9.09964 29.8795 9.46451 29.3249 9.74181C28.8141 10.0045 28.1719 10.1942 27.5152 10.1942C25.7346 10.1942 23.5892 8.86613 23.5892 6.22449C23.5892 3.97691 25.253 2.16717 27.5006 2.16717C28.0698 2.16717 28.6681 2.31311 29.179 2.54663C29.6752 2.78014 30.1422 3.14501 30.4487 3.4515V2.10879Z" fill="white"/>
<path d="M36.9796 11.2159C39.7964 11.2159 42.0439 9.07045 42.0439 6.18071C42.0439 3.27636 39.7818 1.14554 36.9796 1.14554C34.1774 1.14554 31.9152 3.27636 31.9152 6.18071C31.9152 9.07045 34.1628 11.2159 36.9796 11.2159ZM36.9796 2.16717C39.1688 2.16717 40.9347 3.94772 40.9347 6.18071C40.9347 8.41369 39.1688 10.1942 36.9796 10.1942C34.7904 10.1942 33.0244 8.41369 33.0244 6.18071C33.0244 3.94772 34.7904 2.16717 36.9796 2.16717Z" fill="white"/>
<path d="M44.028 1.30608V11.0407H45.108V1.30608H44.028Z" fill="white"/>
<path d="M48.6997 11.0407V3.52447L56.2889 11.4786V1.30608H55.2089V8.85153L47.6197 0.89743V11.0407H48.6997Z" fill="white"/>
</svg>
